<?xml version="1.0" encoding="UTF-8" standalone="no"?>
<!-- Created using Karbon, part of Calligra: http://www.calligra.org/karbon -->

<svg
   xmlns:dc="http://purl.org/dc/elements/1.1/"
   xmlns:cc="http://creativecommons.org/ns#"
   xmlns:rdf="http://www.w3.org/1999/02/22-rdf-syntax-ns#"
   xmlns:svg="http://www.w3.org/2000/svg"
   xmlns="http://www.w3.org/2000/svg"
   xmlns:sodipodi="http://sodipodi.sourceforge.net/DTD/sodipodi-0.dtd"
   xmlns:inkscape="http://www.inkscape.org/namespaces/inkscape"
   width="950"
   height="950"
   id="svg2"
   version="1.1"
   inkscape:version="0.92.3 (2405546, 2018-03-11)"
   sodipodi:docname="leo_ende.svg"
   inkscape:export-filename="leo_ende.png"
   inkscape:export-xdpi="24.25"
   inkscape:export-ydpi="24.25">
  <metadata
     id="metadata13">
    <rdf:RDF>
      <cc:Work
         rdf:about="">
        <dc:format>image/svg+xml</dc:format>
        <dc:type
           rdf:resource="http://purl.org/dc/dcmitype/StillImage" />
        <dc:title />
      </cc:Work>
    </rdf:RDF>
  </metadata>
  <sodipodi:namedview
     pagecolor="#ffffff"
     bordercolor="#666666"
     borderopacity="1"
     objecttolerance="10"
     gridtolerance="10"
     guidetolerance="10"
     inkscape:pageopacity="0"
     inkscape:pageshadow="2"
     inkscape:window-width="1680"
     inkscape:window-height="965"
     id="namedview11"
     showgrid="false"
     inkscape:zoom="0.70710678"
     inkscape:cx="124.82033"
     inkscape:cy="444.46454"
     inkscape:window-x="3360"
     inkscape:window-y="0"
     inkscape:window-maximized="1"
     inkscape:current-layer="svg2"
     fit-margin-top="0"
     fit-margin-left="0"
     fit-margin-right="0"
     fit-margin-bottom="0"
     units="px"
     showguides="true"
     inkscape:guide-bbox="true" />
  <defs
     id="defs4">
    <inkscape:path-effect
       effect="envelope"
       id="path-effect3344"
       is_visible="true"
       yy="true"
       xx="true"
       bendpath1="m 486,-243.31728 c 300,-89.99998 600,130.00001 900,0"
       bendpath2="m 1386,-243.31728 0,180.000001"
       bendpath3="m 486,-63.317279 c 300,-89.999991 600,130.00001 900,0"
       bendpath4="m 486,-243.31728 0,180.000001"
       bendpath1-nodetypes="cc"
       bendpath3-nodetypes="cc" />
    <inkscape:path-effect
       effect="envelope"
       id="path-effect3346"
       is_visible="true"
       yy="true"
       xx="true"
       bendpath1="m 486,-63.317279 c 300,-89.999991 600,130.00001 900,0"
       bendpath2="m 1386,-63.317279 0,179.999989"
       bendpath3="m 486,116.68271 c 300,-89.999979 600,130.00002 900,0"
       bendpath4="m 486,-63.317279 0,179.999989"
       bendpath1-nodetypes="cc"
       bendpath3-nodetypes="cc" />
    <inkscape:path-effect
       effect="envelope"
       id="path-effect3348"
       is_visible="true"
       yy="true"
       xx="true"
       bendpath1="m 486,116.68271 c 300,-89.999979 600,130.00002 900,0"
       bendpath2="m 1386,116.68271 0,179.99998"
       bendpath3="m 486,296.68269 c 300,-89.99996 600,130.00004 900,0"
       bendpath4="m 486,116.68271 0,179.99998"
       bendpath1-nodetypes="cc"
       bendpath3-nodetypes="cc" />
    <inkscape:path-effect
       effect="envelope"
       id="path-effect3377"
       is_visible="true"
       yy="true"
       xx="true"
       bendpath1="m -166.99995,-346.59525 c 299.99997,-90 599.99994,130 899.99991,0"
       bendpath2="m 732.99996,-346.59525 0,450.00001"
       bendpath3="m -166.99995,103.40476 c 299.99997,-90.000003 599.99994,130 899.99991,0"
       bendpath4="m -166.99995,-346.59525 0,450.00001"
       bendpath1-nodetypes="cc"
       bendpath3-nodetypes="cc" />
    <inkscape:path-effect
       effect="envelope"
       id="path-effect3381"
       is_visible="true"
       yy="true"
       xx="true"
       bendpath1="M 0,0 C 15,-4.5 30,6.5 45,0"
       bendpath2="m 45,0 0,22.5"
       bendpath3="M 0,22.5 C 15,18 30,29 45,22.5"
       bendpath4="M 0,0 0,22.5"
       bendpath1-nodetypes="cc"
       bendpath3-nodetypes="cc" />
    <inkscape:path-effect
       effect="envelope"
       id="path-effect3391"
       is_visible="true"
       yy="true"
       xx="true"
       bendpath1="M 0,0 C 15,-4.5 30,6.5 45,0"
       bendpath2="m 45,0 0,22.5"
       bendpath3="M 0,22.5 C 15,18 30,29 45,22.5"
       bendpath4="M 0,0 0,22.5"
       bendpath1-nodetypes="cc"
       bendpath3-nodetypes="cc" />
    <inkscape:path-effect
       effect="envelope"
       id="path-effect4162"
       is_visible="true"
       yy="true"
       xx="true"
       bendpath1="M 0,0 C 300,-90.000024 600,129.99998 900,0"
       bendpath2="m 900,0 0,600"
       bendpath3="m 0,600 c 300,-90.00002 600,129.99998 900,0"
       bendpath4="M 0,0 0,600"
       bendpath1-nodetypes="cc"
       bendpath3-nodetypes="cc" />
    <inkscape:path-effect
       effect="envelope"
       id="path-effect5245"
       is_visible="true"
       yy="true"
       xx="true"
       bendpath1="m -147.00271,336.09277 c 300,-90 620,130 900,0"
       bendpath2="m 752.99729,336.09277 0,150"
       bendpath3="m -147.00271,486.09277 c 300,-90 600,130 900,0"
       bendpath4="m -147.00271,336.09277 0,150"
       bendpath1-nodetypes="cc"
       bendpath3-nodetypes="cc" />
    <inkscape:path-effect
       effect="envelope"
       id="path-effect5242"
       is_visible="true"
       yy="true"
       xx="true"
       bendpath1="m 0,150 c 300,-90 600,130 900,0"
       bendpath2="m 900,150 0,300"
       bendpath3="m 0,450 c 300,-90 600,130 900,0"
       bendpath4="M 0,150 0,450"
       bendpath1-nodetypes="cc"
       bendpath3-nodetypes="cc" />
    <inkscape:path-effect
       effect="envelope"
       id="path-effect4610"
       is_visible="true"
       yy="true"
       xx="true"
       bendpath1="m -147.00271,-113.90724 c 300,-90 601.7643,132.770118 900,0"
       bendpath2="m 752.99729,-113.90724 0,150.000008"
       bendpath3="m -147.00271,36.092768 c 300,-90.000005 600,130.000002 900,0"
       bendpath4="m -147.00271,-113.90724 0,150.000008"
       bendpath1-nodetypes="cc"
       bendpath3-nodetypes="cc" />
    <inkscape:path-effect
       effect="envelope"
       id="path-effect3356"
       is_visible="true"
       yy="true"
       xx="true"
       bendpath1="M 0,0 C 0.60000001,-0.18000002 1.2000001,0.26000001 1.8,0"
       bendpath2="m 1.8,0 0,1.2"
       bendpath3="m 0,1.2 c 0.60000001,-0.1799999 1.2000001,0.2600001 1.8,0"
       bendpath4="M 0,0 0,1.2"
       bendpath1-nodetypes="cc"
       bendpath3-nodetypes="cc" />
    <inkscape:path-effect
       effect="envelope"
       id="path-effect3344-5"
       is_visible="true"
       yy="true"
       xx="true"
       bendpath1="m -15.836438,-353.27167 c 300.000008,-89.99998 600.000008,130.00002 900.000008,0"
       bendpath2="m 884.16357,-353.27167 0,180.00001"
       bendpath3="m -15.836438,-173.27166 c 300.000008,-89.99999 600.000008,130.000006 900.000008,0"
       bendpath4="m -15.836438,-353.27167 0,180.00001"
       bendpath1-nodetypes="cc"
       bendpath3-nodetypes="cc" />
    <inkscape:path-effect
       effect="envelope"
       id="path-effect3346-3"
       is_visible="true"
       yy="true"
       xx="true"
       bendpath1="m -15.836438,-173.27166 c 300.000008,-89.99999 600.000008,130.000006 900.000008,0"
       bendpath2="m 884.16357,-173.27166 0,179.9999858"
       bendpath3="m -15.836438,6.7283258 c 300.000008,-89.9999798 600.000008,130.0000242 900.000008,0"
       bendpath4="m -15.836438,-173.27166 0,179.9999858"
       bendpath1-nodetypes="cc"
       bendpath3-nodetypes="cc" />
    <inkscape:path-effect
       effect="envelope"
       id="path-effect3348-5"
       is_visible="true"
       yy="true"
       xx="true"
       bendpath1="m -15.836438,6.7283258 c 300.000008,-89.9999798 600.000008,130.0000242 900.000008,0"
       bendpath2="m 884.16357,6.7283258 0,179.9999842"
       bendpath3="m -15.836438,186.72831 c 300.000008,-89.999964 600.000008,130.00004 900.000008,0"
       bendpath4="m -15.836438,6.7283258 0,179.9999842"
       bendpath1-nodetypes="cc"
       bendpath3-nodetypes="cc" />
    <inkscape:path-effect
       effect="envelope"
       id="path-effect3377-6"
       is_visible="true"
       yy="true"
       xx="true"
       bendpath1="m 296.70481,-97.124709 c 299.99997,-90.000001 599.99994,129.999998 899.99989,0"
       bendpath2="m 1196.7047,-97.124709 0,450.000009"
       bendpath3="m 296.70481,352.8753 c 299.99997,-90 599.99994,130 899.99989,0"
       bendpath4="m 296.70481,-97.124709 0,450.000009"
       bendpath1-nodetypes="cc"
       bendpath3-nodetypes="cc" />
    <inkscape:path-effect
       effect="envelope"
       id="path-effect3381-2"
       is_visible="true"
       yy="true"
       xx="true"
       bendpath1="M 0,0 C 15,-4.5 30,6.5 45,0"
       bendpath2="m 45,0 0,22.5"
       bendpath3="M 0,22.5 C 15,18 30,29 45,22.5"
       bendpath4="M 0,0 0,22.5"
       bendpath1-nodetypes="cc"
       bendpath3-nodetypes="cc" />
    <inkscape:path-effect
       effect="envelope"
       id="path-effect3391-9"
       is_visible="true"
       yy="true"
       xx="true"
       bendpath1="M 0,0 C 15,-4.5 30,6.5 45,0"
       bendpath2="m 45,0 0,22.5"
       bendpath3="M 0,22.5 C 15,18 30,29 45,22.5"
       bendpath4="M 0,0 0,22.5"
       bendpath1-nodetypes="cc"
       bendpath3-nodetypes="cc" />
    <inkscape:path-effect
       effect="envelope"
       id="path-effect3356-3"
       is_visible="true"
       yy="true"
       xx="true"
       bendpath1="M 0,0 C 0.60000001,-0.18000002 1.2000001,0.26000001 1.8,0"
       bendpath2="m 1.8,0 0,1.2"
       bendpath3="m 0,1.2 c 0.60000001,-0.1799999 1.2000001,0.2600001 1.8,0"
       bendpath4="M 0,0 0,1.2"
       bendpath1-nodetypes="cc"
       bendpath3-nodetypes="cc" />
    <inkscape:path-effect
       effect="envelope"
       id="path-effect3344-7"
       is_visible="true"
       yy="true"
       xx="true"
       bendpath1="m 93.058007,-251.44829 c 300.000003,-89.99998 600.000003,130.00001 900.000003,0"
       bendpath2="m 993.05801,-251.44829 0,180"
       bendpath3="m 93.058007,-71.44829 c 300.000003,-89.99999 600.000003,130.00001 900.000003,0"
       bendpath4="m 93.058007,-251.44829 0,180"
       bendpath1-nodetypes="cc"
       bendpath3-nodetypes="cc" />
    <inkscape:path-effect
       effect="envelope"
       id="path-effect3346-5"
       is_visible="true"
       yy="true"
       xx="true"
       bendpath1="m 93.058007,-71.44829 c 300.000003,-89.99999 600.000003,130.00001 900.000003,0"
       bendpath2="m 993.05801,-71.44829 0,179.99999"
       bendpath3="m 93.058007,108.5517 c 300.000003,-89.99998 600.000003,130.00002 900.000003,0"
       bendpath4="m 93.058007,-71.44829 0,179.99999"
       bendpath1-nodetypes="cc"
       bendpath3-nodetypes="cc" />
    <inkscape:path-effect
       effect="envelope"
       id="path-effect3348-3"
       is_visible="true"
       yy="true"
       xx="true"
       bendpath1="m 93.058007,108.5517 c 300.000003,-89.99998 600.000003,130.00002 900.000003,0"
       bendpath2="m 993.05801,108.5517 0,179.99998"
       bendpath3="m 93.058007,288.55168 c 300.000003,-89.99996 600.000003,130.00004 900.000003,0"
       bendpath4="m 93.058007,108.5517 0,179.99998"
       bendpath1-nodetypes="cc"
       bendpath3-nodetypes="cc" />
    <inkscape:path-effect
       effect="envelope"
       id="path-effect3356-9"
       is_visible="true"
       yy="true"
       xx="true"
       bendpath1="M 0,0 C 0.60000001,-0.18000002 1.2000001,0.26000001 1.8,0"
       bendpath2="m 1.8,0 0,1.2"
       bendpath3="m 0,1.2 c 0.60000001,-0.1799999 1.2000001,0.2600001 1.8,0"
       bendpath4="M 0,0 0,1.2"
       bendpath1-nodetypes="cc"
       bendpath3-nodetypes="cc" />
    <inkscape:path-effect
       effect="envelope"
       id="path-effect4796"
       is_visible="true"
       yy="true"
       xx="true"
       bendpath1="m 0,601.75984 c 300.00001,-122.44658 600.00003,169.60985 900.00004,0"
       bendpath2="m 900.00004,601.75984 0,450.60236"
       bendpath3="m 0,1052.3622 c 300.00001,-123.69604 600.00003,169.236 900.00004,0"
       bendpath4="M 0,601.75984 0,1052.3622"
       bendpath1-nodetypes="cc"
       bendpath3-nodetypes="cc" />
    <inkscape:path-effect
       effect="envelope"
       id="path-effect4774"
       is_visible="true"
       yy="true"
       xx="true"
       bendpath1="m 0,602.3622 900.00004,0"
       bendpath2="m 900.00004,602.3622 0,450"
       bendpath3="m 0,1052.3622 900.00004,0"
       bendpath4="m 0,602.3622 0,450" />
    <inkscape:path-effect
       effect="envelope"
       id="path-effect3344-1"
       is_visible="true"
       yy="true"
       xx="true"
       bendpath1="m -124.73088,-692.68292 c 300,-89.99998 600,130.00002 900,0"
       bendpath2="m 775.26912,-692.68292 0,180.00001"
       bendpath3="m -124.73088,-512.68291 c 300,-89.99999 600,130.00001 900,0"
       bendpath4="m -124.73088,-692.68292 0,180.00001"
       bendpath1-nodetypes="cc"
       bendpath3-nodetypes="cc" />
    <inkscape:path-effect
       effect="envelope"
       id="path-effect3346-2"
       is_visible="true"
       yy="true"
       xx="true"
       bendpath1="m -124.73088,-512.68291 c 300,-89.99999 600,130.00001 900,0"
       bendpath2="m 775.26912,-512.68291 0,179.99999"
       bendpath3="m -124.73088,-332.68292 c 300,-89.99998 600,130.00002 900,0"
       bendpath4="m -124.73088,-512.68291 0,179.99999"
       bendpath1-nodetypes="cc"
       bendpath3-nodetypes="cc" />
    <inkscape:path-effect
       effect="envelope"
       id="path-effect3348-7"
       is_visible="true"
       yy="true"
       xx="true"
       bendpath1="m -124.73088,-332.68292 c 300,-89.99998 600,130.00002 900,0"
       bendpath2="m 775.26912,-332.68292 0,179.99998"
       bendpath3="m -124.73088,-152.68294 c 300,-89.99996 600,130.000037 900,0"
       bendpath4="m -124.73088,-332.68292 0,179.99998"
       bendpath1-nodetypes="cc"
       bendpath3-nodetypes="cc" />
    <inkscape:path-effect
       effect="envelope"
       id="path-effect4796-0"
       is_visible="true"
       yy="true"
       xx="true"
       bendpath1="m 0,601.75984 c 300.00001,-122.44658 600.00003,169.60985 900.00004,0"
       bendpath2="m 900.00004,601.75984 0,450.60236"
       bendpath3="m 0,1052.3622 c 300.00001,-123.69604 600.00003,169.236 900.00004,0"
       bendpath4="M 0,601.75984 0,1052.3622"
       bendpath1-nodetypes="cc"
       bendpath3-nodetypes="cc" />
    <inkscape:path-effect
       effect="envelope"
       id="path-effect4774-9"
       is_visible="true"
       yy="true"
       xx="true"
       bendpath1="m 0,602.3622 900.00004,0"
       bendpath2="m 900.00004,602.3622 0,450"
       bendpath3="m 0,1052.3622 900.00004,0"
       bendpath4="m 0,602.3622 0,450" />
    <inkscape:path-effect
       effect="envelope"
       id="path-effect3344-3"
       is_visible="true"
       yy="true"
       xx="true"
       bendpath1="M 503.99999,-297.38105 C 804,-387.38103 1104,-167.38103 1404,-297.38105"
       bendpath2="m 1404,-297.38105 0,180.00001"
       bendpath3="M 503.99999,-117.38104 C 804,-207.38103 1104,12.618969 1404,-117.38104"
       bendpath4="m 503.99999,-297.38105 0,180.00001"
       bendpath1-nodetypes="cc"
       bendpath3-nodetypes="cc" />
    <inkscape:path-effect
       effect="envelope"
       id="path-effect3346-6"
       is_visible="true"
       yy="true"
       xx="true"
       bendpath1="M 503.99999,-117.38104 C 804,-207.38103 1104,12.618969 1404,-117.38104"
       bendpath2="m 1404,-117.38104 0,179.999989"
       bendpath3="M 503.99999,62.618949 C 804,-27.381031 1104,192.61897 1404,62.618949"
       bendpath4="m 503.99999,-117.38104 0,179.999989"
       bendpath1-nodetypes="cc"
       bendpath3-nodetypes="cc" />
    <inkscape:path-effect
       effect="envelope"
       id="path-effect3348-0"
       is_visible="true"
       yy="true"
       xx="true"
       bendpath1="M 503.99999,62.618949 C 804,-27.381031 1104,192.61897 1404,62.618949"
       bendpath2="m 1404,62.618949 0,179.999981"
       bendpath3="M 503.99999,242.61893 C 804,152.61897 1104,372.61897 1404,242.61893"
       bendpath4="m 503.99999,62.618949 0,179.999981"
       bendpath1-nodetypes="cc"
       bendpath3-nodetypes="cc" />
    <inkscape:path-effect
       effect="envelope"
       id="path-effect4796-6"
       is_visible="true"
       yy="true"
       xx="true"
       bendpath1="m 0,601.75984 c 300.00001,-122.44658 600.00003,169.60985 900.00004,0"
       bendpath2="m 900.00004,601.75984 0,450.60236"
       bendpath3="m 0,1052.3622 c 300.00001,-123.69604 600.00003,169.236 900.00004,0"
       bendpath4="M 0,601.75984 0,1052.3622"
       bendpath1-nodetypes="cc"
       bendpath3-nodetypes="cc" />
    <inkscape:path-effect
       effect="envelope"
       id="path-effect4774-2"
       is_visible="true"
       yy="true"
       xx="true"
       bendpath1="m 0,602.3622 900.00004,0"
       bendpath2="m 900.00004,602.3622 0,450"
       bendpath3="m 0,1052.3622 900.00004,0"
       bendpath4="m 0,602.3622 0,450" />
    <inkscape:path-effect
       effect="envelope"
       id="path-effect4291"
       is_visible="true"
       yy="true"
       xx="true"
       bendpath1="M -0.01806705,602.36218 C 299.98193,503.4081 596.88148,737.97846 899.98193,602.36218"
       bendpath2="m 899.98193,602.36218 0,450.00002"
       bendpath3="M -0.01806705,1052.3622 C 299.98193,920.78514 597.91888,1166.8118 899.98193,1052.3622"
       bendpath4="m -0.01806705,602.36218 0,450.00002"
       bendpath1-nodetypes="cc"
       bendpath3-nodetypes="cc" />
    <inkscape:path-effect
       effect="envelope"
       id="path-effect3344-75"
       is_visible="true"
       yy="true"
       xx="true"
       bendpath1="m -302.92179,165.74471 c 300.0000043,-89.99998 600,130.00002 900,0"
       bendpath2="m 597.07821,165.74471 0,180.00001"
       bendpath3="m -302.92179,345.74472 c 300.0000043,-89.99999 600,130.00001 900,0"
       bendpath4="m -302.92179,165.74471 0,180.00001"
       bendpath1-nodetypes="cc"
       bendpath3-nodetypes="cc" />
    <inkscape:path-effect
       effect="envelope"
       id="path-effect3346-9"
       is_visible="true"
       yy="true"
       xx="true"
       bendpath1="m -302.92179,345.74472 c 300.0000043,-89.99999 600,130.00001 900,0"
       bendpath2="m 597.07821,345.74472 0,179.99999"
       bendpath3="m -302.92179,525.74471 c 300.0000043,-89.99998 600,130.00002 900,0"
       bendpath4="m -302.92179,345.74472 0,179.99999"
       bendpath1-nodetypes="cc"
       bendpath3-nodetypes="cc" />
    <inkscape:path-effect
       effect="envelope"
       id="path-effect3348-2"
       is_visible="true"
       yy="true"
       xx="true"
       bendpath1="m -302.92179,525.74471 c 300.0000043,-89.99998 600,130.00002 900,0"
       bendpath2="m 597.07821,525.74471 0,179.99998"
       bendpath3="m -302.92179,705.74469 c 300.0000043,-89.99996 600,130.00004 900,0"
       bendpath4="m -302.92179,525.74471 0,179.99998"
       bendpath1-nodetypes="cc"
       bendpath3-nodetypes="cc" />
  </defs>
  <rect
     style="opacity:1;fill:#c87137;fill-opacity:1;fill-rule:nonzero;stroke:none;stroke-width:10;stroke-linecap:round;stroke-linejoin:miter;stroke-miterlimit:4;stroke-dasharray:none;stroke-opacity:1"
     id="rect4154"
     width="28"
     height="320"
     x="396.78177"
     y="74.899887"
     transform="matrix(0.98480775,-0.17364818,0.17364818,0.98480775,0,0)" />
  <rect
     style="opacity:1;fill:#c87137;fill-opacity:1;fill-rule:nonzero;stroke:none;stroke-width:10;stroke-linecap:round;stroke-linejoin:miter;stroke-miterlimit:4;stroke-dasharray:none;stroke-opacity:1"
     id="rect4154-6"
     width="28"
     height="320"
     x="-539.67389"
     y="-90.222664"
     transform="matrix(-0.98480775,-0.17364818,-0.17364818,0.98480775,0,0)" />
  <g
     transform="matrix(0.4476394,0.0789309,-0.0789309,0.4476394,594.63808,-264.50708)"
     id="g4286"
     inkscape:path-effect="#path-effect4291">
    <path
       inkscape:connector-curvature="0"
       id="rect4283"
       d="M 0.00875681,601.74954 C 38.555963,595.47731 73.07324,589.28823 112.61008,585.25635 c 0.80893,-0.0825 1.61797,-0.16385 2.42717,-0.24406 36.84562,-3.65299 72.42681,-4.76484 109.43707,-3.10166 0.88498,0.0398 1.76986,0.0811 2.65467,0.12388 37.06272,1.79376 72.81594,6.20346 109.50247,12.25658 0,0 5e-5,10e-6 5e-5,10e-6 0.004,7.3e-4 2.29018,0.37978 2.29461,0.38051 0,0 4e-5,10e-6 4e-5,10e-6 37.16091,6.19335 72.89663,13.62435 109.89356,20.89983 -0.0184,-0.004 2.25886,0.44367 2.24048,0.44006 36.83149,7.22573 72.89049,13.84698 110.01068,18.36542 0.86946,0.10583 1.73904,0.21044 2.60876,0.31382 0,0 4e-5,0 4e-5,0 36.76194,4.36983 72.69227,6.39928 109.6786,5.26573 0.9779,-0.03 1.95579,-0.0622 2.93369,-0.0966 37.17333,-1.30795 72.73942,-5.75125 109.26809,-12.66123 0.77604,-0.14679 1.55181,-0.29457 2.32734,-0.44331 37.98665,-7.28606 75.22369,-17.01121 112.07814,-24.98878 1.8e-4,0.006 0.0328,449.98002 0.0326,449.98662 -39.05299,7.1741 -73.33293,14.4853 -113.54672,19.7779 -0.78413,0.1032 -1.56842,0.2053 -2.3529,0.3063 -36.9353,4.7562 -72.70715,6.8623 -109.95742,5.9465 -0.97971,-0.024 -1.95931,-0.05 -2.93885,-0.078 -37.06775,-1.066 -72.88438,-5.0082 -109.57515,-10.8464 0,0 -5e-5,0 -5e-5,0 -0.86757,-0.1381 -1.735,-0.2771 -2.60233,-0.417 -37.09398,-5.9853 -72.93213,-13.5071 -109.80674,-21.0593 0.0414,0.01 -2.28065,-0.4668 -2.23925,-0.4583 -36.86889,-7.5429 -72.87857,-14.676 -110.02959,-19.8464 0,0 -4e-5,0 -4e-5,0 -0.76685,-0.1068 -1.5338,-0.2126 -2.30087,-0.3175 0,0 -4e-5,0 -4e-5,0 -36.77146,-5.0296 -72.6919,-7.8122 -109.76567,-7.4254 -0.88552,0.01 -1.77106,0.02 -2.65664,0.033 -37.03729,0.5399 -72.50282,4.2462 -108.97893,10.5467 -0.80113,0.1384 -1.60197,0.2779 -2.40256,0.4185 -37.594798,6.6037 -74.46555,15.7774 -110.88887928,23.4364 -2.8114e-4,-0.01 0.05296692,-450.01389 0.05325634,-450.02046"
       style="opacity:1;fill:#ffffff;fill-opacity:1;fill-rule:nonzero;stroke:none;stroke-width:48.02600098;stroke-linecap:round;stroke-linejoin:miter;stroke-miterlimit:4;stroke-dasharray:none;stroke-opacity:1"
       inkscape:original-d="m -0.01806705,602.36218 899.99999705,0 0,450.00002 -899.99999705,0 z" />
    <path
       id="path4189"
       d="m 99.870105,586.64941 c 4.124145,1.80864 8.258535,3.64939 12.401785,5.52103 0.002,9.9e-4 2.36462,1.07067 2.36681,1.07166 35.39759,16.07742 71.55471,34.43566 107.83863,54.10666 0.002,9.8e-4 2.64307,1.43541 2.64488,1.4364 36.42482,19.82682 73.27777,41.10454 109.80417,62.60233 0,0 1e-5,1e-5 1e-5,1e-5 0.005,0.003 2.30935,1.36122 2.31439,1.36419 0,0 1e-5,0 1e-5,0 12.59999,7.42356 25.28441,14.93664 37.87841,22.4049 0.19366,-44.46643 0.52983,-90.73045 1.31268,-133.79437 -12.49948,-2.35351 -24.97005,-4.6013 -37.50577,-6.69054 0,0 -10e-6,-1e-5 -10e-6,-1e-5 0.004,7.5e-4 -2.29912,-0.38125 -2.29464,-0.38051 0,0 -1e-5,0 -1e-5,0 -36.68653,-6.05312 -72.43975,-10.46282 -109.50247,-12.25658 -0.8848,-0.0428 -1.76968,-0.0841 -2.65466,-0.12388 0,0 -2e-5,0 -2e-5,0 -37.01025,-1.66317 -72.59143,-0.55133 -109.43706,3.10166 -0.80919,0.0802 -1.61823,0.16158 -2.42716,0.24406 -4.25192,0.43361 -8.49704,0.89885 -12.739975,1.39299 z M 526.07292,629.4999 c 0.62866,36.67858 0.56446,80.93301 0.47261,122.22058 11.74396,-4.38106 23.53494,-8.8084 35.28295,-13.28102 -0.007,0.003 2.63359,-1.0023 2.6261,-0.99945 36.50119,-13.92892 73.47256,-28.68916 109.8619,-45.13061 0.97625,-0.44057 1.95229,-0.88263 2.92815,-1.32622 36.52294,-16.62609 72.89741,-35.22062 108.51055,-56.89273 0,0 2e-5,-1e-5 2e-5,-1e-5 0.76764,-0.46721 1.5349,-0.93587 2.30177,-1.40598 4.66698,-2.86087 9.3212,-5.77553 13.96181,-8.74556 -4.70165,0.9703 -9.40975,1.91088 -14.13138,2.81651 -0.77553,0.14875 -1.5513,0.29653 -2.32734,0.44332 -36.52866,6.90997 -72.09475,11.35327 -109.26808,12.66122 0,0 -10e-6,10e-6 -10e-6,10e-6 -0.9779,0.0344 -1.95578,0.0666 -2.93369,0.0966 -36.98634,1.13356 -72.91668,-0.8959 -109.67863,-5.26573 0,0 -1e-5,0 -1e-5,0 -0.86972,-0.10337 -1.7393,-0.20798 -2.60876,-0.31381 -11.6959,-1.42368 -23.34147,-3.06345 -34.99796,-4.87709 z M -1.2039811,652.46437 c -0.2334633,31.6452 0.32497695,68.06973 0.68784895,99.4864 C 35.069895,751.46301 74.334724,747.7114 110.58118,744.81695 c -0.0184,0.001 2.41561,-0.19288 2.39722,-0.1914 28.40389,-2.23137 55.32589,-3.96544 84.19816,-4.73519 -28.31383,-13.67702 -56.3631,-26.60145 -84.35701,-38.98982 -0.002,-8.4e-4 -2.40691,-1.06064 -2.40881,-1.06148 C 73.012604,683.34124 35.320164,667.52305 -1.2039813,652.46437 Z M 900.70764,651.71036 c -37.17919,23.87288 -74.41316,47.05627 -112.47893,69.20344 0.002,-0.001 -2.32929,1.35322 -2.32688,1.35182 -27.35691,15.85171 -54.65359,30.85908 -82.3604,45.21185 28.13551,-1.55821 54.2667,-3.96317 81.96396,-6.78136 0.0267,-0.003 2.28583,-0.2351 2.31257,-0.23785 36.87575,-3.77958 75.74762,-8.1561 112.46877,-8.82417 0.22205,-31.64738 0.56377,-68.42697 0.42091,-99.92373 z M -0.50232693,901.94548 C -0.86196654,933.57396 -1.4259794,970.55874 -1.2125191,1001.9676 35.454399,978.56846 72.160079,955.97413 109.97033,934.40553 c -0.002,0.001 2.41031,-1.37206 2.40792,-1.37069 28.03917,-15.91694 56.02709,-30.9004 84.45413,-45.17074 -28.87456,1.16332 -55.70173,3.28571 -84.06854,5.87734 -0.0225,0.002 -2.36937,0.21938 -2.39189,0.22146 -36.420189,3.37102 -75.056443,7.45624 -110.87427698,7.98258 z M 703.20219,915.79106 c 27.60774,13.13055 54.98125,25.5591 82.30779,37.45818 0.001,5.4e-4 2.32758,1.00955 2.32881,1.01008 37.78997,16.41881 75.77774,32.01894 112.87408,46.94888 0.13062,-31.54462 -0.21451,-68.1708 -0.43458,-99.57063 -36.56977,0.6005 -75.87482,4.73029 -112.65872,8.11819 0.0217,-0.002 -2.33915,0.21617 -2.3174,0.21415 -27.73485,2.53101 -53.95314,4.61512 -82.09998,5.82115 z m -328.50276,-9.65742 c -12.62301,4.65955 -25.37711,9.37772 -38.01686,14.1048 0.008,-0.003 -2.33205,0.87143 -2.32396,0.86841 0,0 -10e-6,0 -10e-6,0 -36.53258,13.67955 -73.88637,28.1586 -110.40031,44.14293 0,0 -2e-5,10e-6 -2e-5,10e-6 -0.88737,0.38788 -1.77459,0.77696 -2.66167,1.16726 0,0 -2e-5,0 -2e-5,0 -36.50032,16.08097 -72.92491,34.12075 -108.30609,55.21055 -0.78906,0.4704 -1.57757,0.9424 -2.36556,1.4159 -4.14029,2.4881 -8.26662,5.019 -12.378501,7.5939 4.192311,-0.7955 8.390051,-1.5646 12.597951,-2.3038 0.80059,-0.1406 1.60143,-0.2801 2.40256,-0.4185 36.47611,-6.3005 71.94164,-10.0068 108.97893,-10.5467 0.88557,-0.013 1.77111,-0.024 2.65663,-0.033 0,0 1e-5,0 1e-5,0 37.07377,-0.3868 72.9942,2.3958 109.76565,7.4254 0,0 2e-5,0 2e-5,0 0.76708,0.1049 1.53404,0.2107 2.30089,0.3175 0,0 2e-5,0 2e-5,0 12.56747,1.749 25.07074,3.7328 37.59079,5.8962 -0.0166,-35.75399 0.0846,-85.12691 0.15955,-124.84066 z m 151.40506,16.81074 c -0.19036,44.66472 -0.57562,93.12312 -1.9934,137.40062 11.63093,2.1672 23.24524,4.2144 34.91362,6.0971 0.86733,0.1399 1.73476,0.2789 2.60233,0.417 36.69079,5.8382 72.50743,9.7804 109.5752,10.8464 0.97954,0.028 1.95914,0.054 2.93885,0.078 37.25027,0.9158 73.02211,-1.1903 109.95741,-5.9465 0,0 1e-5,0 1e-5,0 0.78448,-0.101 1.56877,-0.2031 2.3529,-0.3063 4.77386,-0.6283 9.53688,-1.2971 14.29553,-2.0016 -4.66574,-1.9381 -9.34082,-3.923 -14.02332,-5.9526 -0.76948,-0.3334 -1.53921,-0.668 -2.30919,-1.0037 -35.62983,-15.5449 -72.04588,-33.7911 -108.30869,-53.3295 0,0 -2e-5,0 -2e-5,0 -0.003,-0 -2.91103,-1.5714 -2.91411,-1.573 -36.17099,-19.5801 -73.01998,-40.8887 -109.32654,-62.31323 0,0 -10e-6,0 -10e-6,-1e-5 -0.006,-0.004 -2.60858,-1.54193 -2.61493,-1.54568 -11.69069,-6.90954 -23.45115,-13.90106 -35.14564,-20.8674 z"
       style="fill:#00247d;fill-opacity:1;fill-rule:evenodd;stroke:none;stroke-width:0.05px;stroke-linecap:butt;stroke-linejoin:miter;stroke-opacity:1"
       inkscape:connector-curvature="0"
       inkscape:original-d="m 100.48193,602.36225 274.5,137.25 0,-137.25 -274.5,0 z m 424.5,0 0,137.25 274.5,-137.25 -274.5,0 z m -524.99999705,50.25 0,99.75 199.49999705,0 -199.49999705,-99.75 z m 899.99999705,0 -199.5,99.75 199.5,0 0,-99.75 z m -899.99999705,249.75 0,99.74995 199.49999705,-99.74995 -199.49999705,0 z m 700.49999705,0 199.5,99.74995 0,-99.74995 -199.5,0 z m -325.5,12.75 -274.5,137.24995 274.5,0 0,-137.24995 z m 150,0 0,137.24995 274.5,0 -274.5,-137.24995 z" />
    <path
       id="path3351"
       d="m 0.00875438,601.7496 c -0.50330667,11.42773 -0.82137983,22.82995 -1.01368498,34.13849 36.4634366,14.45507 73.9397436,29.98922 111.4232906,46.54974 -5.9e-4,-2.6e-4 2.40905,1.0635 2.40847,1.06324 0,0 1e-5,10e-6 1e-5,10e-6 36.08212,16.00004 72.33686,33.11492 108.92551,51.50157 0,0 2e-5,10e-6 2e-5,10e-6 -4.9e-4,-2.5e-4 2.66081,1.33956 2.66032,1.33931 0,0 1e-5,1e-5 1e-5,1e-5 2.06294,1.04106 4.12598,2.08561 6.18923,3.13368 22.95824,0.0494 45.51572,0.76421 68.48839,2.08203 -24.86468,-13.80546 -49.69057,-27.21141 -74.54151,-40.10732 0,0 -2e-5,0 -2e-5,0 6.6e-4,3.4e-4 -2.65966,-1.37686 -2.65901,-1.37652 0,0 0,0 0,0 -36.51897,-18.87089 -72.85739,-36.48872 -108.78723,-52.50766 9.7e-4,4.3e-4 -2.40216,-1.06612 -2.40119,-1.06569 C 73.27187,629.88971 36.100158,614.86234 0.00875412,601.7496 M 406.35083,607.1495 c -0.61924,55.73824 -0.88836,114.41572 -1.04996,173.09795 -22.86203,-2.32162 -45.40208,-4.44826 -68.31869,-6.17201 0,0 -2e-5,0 -2e-5,0 0.003,2.2e-4 -2.32507,-0.17465 -2.32217,-0.17443 -37.35695,-2.75896 -72.96939,-4.15824 -110.30384,-3.86158 0,0 -2e-5,0 -2e-5,0 -0.88688,0.007 -1.7736,0.0147 -2.6602,0.0237 -37.7632,0.39942 -71.57109,2.4938 -108.5775,5.33166 -0.0253,0.002 -2.36661,0.18416 -2.39191,0.18612 -36.379184,2.82792 -75.136668,6.26697 -110.94046161,6.25405 0.25742549,31.20576 0.26159281,58.59534 0.009798,89.99625 35.9229658,0.0156 74.3665518,-3.60176 110.8233238,-6.69296 -0.0329,0.003 2.42175,-0.20561 2.38886,-0.20281 36.98559,-3.09969 70.71208,-5.4838 108.4909,-6.16417 0.88634,-0.0156 1.7728,-0.03 2.65944,-0.0434 0,0 2e-5,0 2e-5,0 37.32177,-0.57196 72.94354,0.60503 110.30329,3.21481 0,0 2e-5,0 2e-5,0 0.003,1.9e-4 2.3198,0.16508 2.32248,0.16527 0,0 2e-5,0 2e-5,0 22.9158,1.63408 45.46586,3.70368 68.32485,5.99948 -0.11398,58.272 -0.23928,115.12647 -0.60902,168.34424 14.18901,2.7183 28.3128,5.5746 42.47868,8.4728 0.0373,0.01 2.20197,0.4507 2.23925,0.4583 15.01165,3.0745 29.93719,6.1633 44.96217,9.1647 1.46723,-55.03457 1.64787,-120.71811 1.78307,-177.03873 21.93139,2.14999 43.57483,4.0558 65.51711,5.53451 -0.003,-2.1e-4 2.62585,0.17601 2.62274,0.1758 0,0 2e-5,0 2e-5,0 37.20288,2.43723 72.61891,3.41154 109.67789,2.62545 0.97442,-0.0205 1.94857,-0.0424 2.92256,-0.0656 37.75397,-0.91577 71.38971,-3.47542 108.45111,-6.73804 0,0 2e-5,0 2e-5,0 0.0321,-0.003 2.28172,-0.20316 2.31381,-0.20601 36.87884,-3.26934 75.84642,-7.03828 112.62735,-7.12197 -0.15408,-31.24082 -0.15153,-58.63305 0.006,-90.00248 -36.86117,0.10836 -75.60782,4.01007 -112.52776,7.49608 0.0441,-0.004 -2.35521,0.22336 -2.3111,0.21917 0,0 -2e-5,10e-6 -2e-5,10e-6 -37.03704,3.47649 -70.60138,6.28397 -108.35828,7.46671 -0.97356,0.0301 -1.94731,0.0588 -2.92132,0.0862 -37.03917,1.04654 -72.46513,0.30772 -109.66946,-1.94649 0,0 -2e-5,-10e-6 -2e-5,-10e-6 -0.003,-1.7e-4 -2.62029,-0.16284 -2.62316,-0.16301 -21.94323,-1.37248 -43.59616,-3.19573 -65.52873,-5.2891 0.1297,-52.4393 0.39539,-119.03432 -0.0827,-165.09224 -15.04132,-2.66903 -30.00978,-5.53157 -45.01911,-8.47615 -0.0175,-0.003 -2.22297,-0.43662 -2.24048,-0.44006 -12.18278,-2.39575 -30.28611,-6.02624 -42.46889,-8.422 z m 428.13357,9.67851 c -15.23429,10.46057 -30.62445,20.36519 -46.14805,29.75492 -0.76984,0.46568 -1.54005,0.93008 -2.31067,1.39319 -10e-6,0 -10e-6,10e-6 -2e-5,10e-6 -35.75942,21.481 -72.1593,40.2137 -108.74056,57.13242 -0.97704,0.45115 -1.95425,0.90086 -2.93166,1.34916 -36.48226,16.7546 -73.36175,31.88051 -109.92748,46.18244 0,0 -2e-5,0 -2e-5,0 -0.006,0.002 -2.62071,1.02226 -2.62683,1.02465 -9.23438,3.6031 -18.47843,7.16889 -27.70929,10.70276 9.23126,0.77247 18.44321,1.47155 27.67803,2.08457 0.87457,0.0585 1.74918,0.11622 2.62384,0.173 12.64963,0.81379 25.24101,1.45281 37.888,1.89212 24.02812,-10.23358 48.02685,-20.92938 72.0107,-32.30511 0,0 0,0 0,0 0.97811,-0.46327 1.95604,-0.92781 2.9338,-1.39365 0,0 2e-5,-10e-6 2e-5,-10e-6 36.66113,-17.49728 72.99327,-36.51359 108.97469,-57.69151 0,0 10e-6,-10e-6 10e-6,-10e-6 0.77446,-0.45618 1.54854,-0.91334 2.32225,-1.37148 0,0 10e-6,-1e-5 10e-6,-1e-5 37.91636,-22.44784 75.06891,-47.06735 111.44438,-73.98883 -21.67709,4.69226 -43.458,10.0183 -65.48115,15.06137 z M 298.72616,888.33897 c -24.92443,10.32376 -49.87809,21.11054 -74.8034,32.59298 -1e-5,0 -1e-5,0 -2e-5,0 -0.88974,0.40916 -1.77938,0.81935 -2.66892,1.2306 0,0 -1e-5,0 -1e-5,0 -36.68438,16.987 -73.09957,35.51028 -109.05255,56.21963 0,0 -1e-5,1e-5 -1e-5,1e-5 -0.80053,0.46144 -1.60058,0.92395 -2.40019,1.38754 -37.598943,21.80297 -74.170572,45.74137 -109.84555928,72.00027 21.72586328,-4.5684 43.58117328,-9.7068 65.69163528,-14.4788 14.666159,-9.9165 29.519113,-19.3057 44.544334,-28.2092 0.79308,-0.4699 1.58667,-0.9384 2.38078,-1.4056 35.61633,-20.94239 72.08831,-39.14672 108.66563,-55.53643 0,0 2e-5,0 2e-5,0 0.88848,-0.39753 1.7771,-0.79391 2.66584,-1.18914 0,0 2e-5,0 2e-5,0 36.63812,-16.31998 73.86156,-31.15826 110.47669,-45.20839 0,0 1e-5,0 1e-5,0 0.006,-0.002 2.31818,-0.88766 2.32454,-0.8901 0,0 2e-5,0 2e-5,0 10.13896,-3.88525 20.30234,-7.74213 30.42954,-11.5667 -10.1382,-0.93914 -20.25406,-1.80223 -30.40517,-2.57181 0.003,2.1e-4 -2.32551,-0.17585 -2.3228,-0.17565 -11.90219,-0.88403 -23.76341,-1.6246 -35.68043,-2.19921 z m 303.16948,27.29958 c 23.94611,13.20545 47.87506,26.03371 71.77915,38.33061 0,0 10e-6,10e-6 10e-6,10e-6 -0.001,-7e-4 2.92625,1.50103 2.92489,1.50033 10e-6,0 10e-6,0 2e-5,0 36.46221,18.67028 72.88978,36.12659 108.83896,51.787 0,0 2e-5,0 2e-5,0 -0.001,-6e-4 2.32767,1.0094 2.32628,1.0088 0,0 1e-5,0 1e-5,0 37.84737,16.4182 75.52363,31.0349 112.23315,43.4879 0.29984,-11.3584 0.48779,-22.7168 0.60004,-33.9977 -37.01615,-14.1792 -74.8623,-29.46052 -112.71997,-45.90781 0,0 0,0 0,0 10e-6,1e-5 -2.32925,-1.01055 -2.32923,-1.01055 -36.06191,-15.71161 -72.33241,-32.62316 -108.86492,-50.7664 0,0 -10e-6,0 -10e-6,0 2e-4,9e-5 -2.92493,-1.45512 -2.92473,-1.45502 0,0 -10e-6,-10e-6 -10e-6,-10e-6 -0.002,-9.7e-4 -3.7475,-1.87354 -3.74944,-1.8745 -22.81129,0.31192 -45.24232,-0.0716 -68.11422,-1.10266 z"
       style="fill:#cf142b;fill-opacity:1;fill-rule:evenodd;stroke:none;stroke-width:0.05px;stroke-linecap:butt;stroke-linejoin:miter;stroke-opacity:1"
       inkscape:connector-curvature="0"
       inkscape:original-d="m -0.01806705,602.36224 0,33.75001 232.49999705,116.25 67.5,0 L -0.01806705,602.36224 Z m 404.99999705,0 0,180.00001 -404.99999705,0 0,90 404.99999705,0 0,179.99995 90,0 0,-179.99995 405,0 0,-90 -405,0 0,-180.00001 -90,0 z m 427.5,0 -300,150.00001 67.5,0 300,-150.00001 -67.5,0 z m -532.5,300.00001 -299.99999705,149.99995 67.50000305,0 299.999994,-149.99995 -67.5,0 z m 300,0 300,149.99995 0,-33.75 -232.5,-116.24995 -67.5,0 z" />
  </g>
  <g
     id="g4812"
     transform="matrix(-0.44863244,0.079106,0.079106,0.44863244,254.90636,-45.464799)">
    <path
       inkscape:original-d="m -302.92179,165.74471 900,0 0,180.00001 -900,0 z"
       inkscape:path-effect="#path-effect3344-75"
       id="black_stripe"
       d="m -302.62324,165.53466 c 38.51807,-5.71747 72.9657,-11.24781 112.34087,-14.75058 0,0 0,0 0,0 37.84928,-3.36702 74.25947,-4.25625 112.244658,-2.4475 0,0 0,0 0,0 38.10895,1.81465 74.8109428,6.18134 112.569242,12.12857 8e-6,1e-5 1.5e-5,1e-5 2.3e-5,1e-5 7e-6,0 1.5e-5,0 2.2e-5,0 0,0 1e-6,0 1e-6,0 38.087381,5.99906 74.608344,13.16918 112.549024,20.14141 0,0 0,0 0,0 37.67178,6.92281 74.52262,13.22707 112.45851,17.41384 0,0 1e-5,0 1e-5,0 10e-6,0 2e-5,0 4e-5,0 0,0 0,0 0,0 37.65663,4.15595 74.38947,5.98721 112.23723,4.66726 0,0 0,0 0,0 38.06563,-1.32755 74.39011,-5.76897 111.82486,-12.67394 0,0 0,0 0,0 38.52378,-7.10585 76.33451,-16.65724 113.76929,-24.49601 2e-5,0.0815 10e-5,180.08193 8e-5,180.00046 -37.44477,7.78108 -75.25855,17.29095 -113.78253,24.37168 0,0 0,0 0,0 -37.43752,6.88104 -73.75462,11.31303 -111.82094,12.64243 0,0 0,0 0,0 -37.847,1.32174 -74.57595,-0.49718 -112.23301,-4.63489 0,0 0,0 0,0 -2e-5,0 -3e-5,0 -5e-5,0 -37.93592,-4.16835 -74.78538,-10.44857 -112.45828,-17.34608 0,0 0,0 0,0 -37.9422,-6.94681 -74.46143,-14.0907 -112.54991,-20.06673 0,0 0,0 0,0 -1.5e-5,0 -3e-5,-1e-5 -4.5e-5,-1e-5 0,0 0,0 0,0 -37.75946,-5.9244 -74.458333,-10.27189 -112.567005,-12.07548 0,0 -10e-7,0 -10e-7,0 -37.986089,-1.79779 -74.389229,-0.90607 -112.239379,2.45053 0,0 0,0 0,0 -39.39441,3.49354 -73.79988,8.99671 -112.34268,14.67537 0,0.0588 -4e-5,-179.94156 -3e-5,-180.00034 z"
       style="fill:#000000"
       inkscape:connector-curvature="0" />
    <path
       inkscape:original-d="m -302.92179,345.74472 900,0 0,179.99999 -900,0 z"
       inkscape:path-effect="#path-effect3346-9"
       id="red_stripe"
       d="m -302.62326,345.35449 c 38.50484,-5.73862 72.97495,-11.28373 112.33989,-14.79153 0,0 0,0 0,0 37.84881,-3.3727 74.26283,-4.26059 112.247529,-2.44586 0,0 1e-6,0 1e-6,0 38.109111,1.82067 74.8128042,6.19782 112.570482,12.15748 1e-6,0 1e-6,0 1e-6,0 7e-6,10e-6 1.4e-5,10e-6 2.2e-5,10e-6 0,0 0,0 0,0 38.086786,6.0116 74.608675,13.196 112.548545,20.18206 0,0 0,0 0,0 37.67118,6.93659 74.52275,13.25395 112.45864,17.45075 0,0 0,0 0,0 10e-6,0 3e-5,0 4e-5,0 0,0 0,0 0,0 37.6564,4.16588 74.39136,6.00387 112.23952,4.68489 0,0 0,0 0,0 38.06528,-1.32654 74.39376,-5.77309 111.827,-12.69109 0,0 0,0 0,0 38.52367,-7.11953 76.33275,-16.69353 113.76209,-24.56372 2e-5,0.0815 1.8e-4,180.08241 1.6e-4,180.00093 -37.45017,7.74985 -75.26561,17.23724 -113.78969,24.30437 0,0 0,0 0,0 -37.43903,6.86808 -73.75212,11.29496 -111.81882,12.62537 0,0 0,0 0,0 -37.84659,1.32271 -74.57343,-0.48952 -112.23073,-4.61736 0,0 0,0 0,0 -1e-5,0 -1e-5,0 -2e-5,0 -1e-5,0 -2e-5,0 -2e-5,0 -37.93594,-4.15838 -74.78466,-10.42558 -112.45816,-17.30939 0,0 0,0 0,0 -37.94302,-6.93305 -74.461315,-14.06274 -112.550392,-20.0263 0,0 0,0 -10e-7,0 -1.4e-5,0 -2.9e-5,0 -4.4e-5,0 0,0 -10e-7,0 -10e-7,0 -37.7600903,-5.91205 -74.457268,-10.24914 -112.565793,-12.04674 0,0 -10e-7,0 -10e-7,0 -37.986578,-1.79185 -74.385888,-0.89879 -112.236518,2.45216 0,0 0,0 0,0 -39.40508,3.48856 -73.78723,8.97698 -112.34366,14.63464 -10e-6,0.0588 -7e-5,-179.94189 -7e-5,-180.00067 z"
       style="fill:#dd0000"
       inkscape:connector-curvature="0" />
    <path
       inkscape:original-d="m -302.92179,525.74471 900,0 0,179.99998 -900,0 z"
       inkscape:path-effect="#path-effect3348-2"
       id="gold_stripe"
       d="m -302.62327,525.17431 c 38.49174,-5.75983 72.98406,-11.31971 112.33889,-14.83257 0,0 0,0 0,0 37.84836,-3.3784 74.26619,-4.26492 112.250414,-2.44421 0,0 1e-6,0 1e-6,0 38.109268,1.82671 74.8146533,6.21434 112.571703,12.18645 0,0 1e-6,0 1e-6,0 7e-6,0 1.4e-5,0 2.2e-5,10e-6 0,0 0,0 10e-7,0 38.08619,6.02417 74.609018,13.22288 112.548058,20.22281 0,0 0,0 0,0 37.67058,6.95039 74.5229,13.28087 112.45877,17.48771 10e-6,1e-5 3e-5,1e-5 4e-5,1e-5 0,0 0,0 0,0 37.65617,4.17583 74.39324,6.02055 112.24182,4.70255 0,0 0,0 0,0 38.06492,-1.32554 74.39739,-5.77722 111.82914,-12.70829 0,0 0,0 0,0 38.52356,-7.13323 76.33097,-16.72989 113.75487,-24.63156 10e-6,0.0815 2.6e-4,180.08289 2.4e-4,180.00141 -37.45556,7.71868 -75.27265,17.18364 -113.79684,24.2372 0,0 0,0 0,0 -37.44054,6.85515 -73.74962,11.27693 -111.8167,12.60834 0,0 0,0 0,0 -37.84619,1.32368 -74.57091,-0.48188 -112.22845,-4.59986 0,0 0,0 0,0 -10e-6,0 -10e-6,0 -2e-5,0 -37.93596,-4.14842 -74.78395,-10.40263 -112.45806,-17.27277 0,0 0,0 0,0 -37.94384,-6.91932 -74.461194,-14.03484 -112.550868,-19.98595 0,0 -10e-7,0 -10e-7,0 -1.5e-5,0 -3e-5,0 -4.4e-5,-10e-6 -10e-7,0 -10e-7,0 -2e-6,0 -37.7607216,-5.89971 -74.456203,-10.22642 -112.564583,-12.01805 -1e-6,0 -1e-6,0 -2e-6,0 -37.98708,-1.78593 -74.38255,-0.89152 -112.23366,2.45379 0,0 0,0 0,0 -39.41589,3.48361 -73.77443,8.95729 -112.34464,14.594 -10e-6,0.0588 -1.1e-4,-179.94224 -10e-5,-180.00101 z"
       style="fill:#ffce00"
       inkscape:connector-curvature="0" />
  </g>
  <g
     id="g4400"
     transform="matrix(1.6140029,0,0,1.6140029,-245.36227,-563.12769)">
    <g
       transform="translate(1190.3666,461.76688)"
       id="g4210">
      <g
         id="g4171">
        <path
           inkscape:connector-curvature="0"
           id="path4169"
           d="m -810.844,475.1807 c -13.33,-7.695 -16.388,-23.361 -28.239,-31.439 -11.3374,-18.114 -20.7805,17.168 -34.8553,0.724 -21.0308,-9.216 -17.2123,-45.591 -38.0645,-50.272 -11.0872,3.631 -20.8137,36.835 -26.87014,11.767 -3.41794,-17.173 -15.69959,-45.165 6.12314,-54.64 17.0667,-13.255 -29.1376,-31.006 -5.09436,-46.593 18.98426,-12.431 -24.07204,-29.766 1.55334,-43.745 12.60052,-12.559 20.37742,-25.142 25.62042,-39.431 24.3445,-10.543 7.8943,-35.148 -4.216,-48.336 -9.0712,-22.741 13.2099,-36.268 26.0811,-50.642 14.2388,-17.5613 0.5508,-38.959198 -1.5691,-58.169398 -6.1914,-18.1744 2.501,-43.820594 24.6246,-43.356387 12.605,0.435462 35.7678,-0.689519 38.3348,14.665287 -0.566,13.5985 -2.214,29.0101 8.919,38.455 14.998,-9.7532 30.106,-23.8221 48.658,-28.3994 15.783,-5.3942 29.937,12.2428 43.29,-2.4827 20.92,-5.9801 29.245,20.0568 47.704,23.2473 11.953,4.352 29.702,16.6617 34.226,-1.2008 4.127,-18.6745 25.352,-36.092591 39.839,-14.2227 13.25,12.9188 28.615,38.8271 7.472,52.315598 -7.063,5.5194 -14.004,7.9188 -21.142,11.3455 -9.213,10.9447 19.818,28.1717 -1.016,40.9567 -10.891,17.215 19.111,30.61 24.013,47.565 8.531,20.361 26.069,-15.186 41.634,2.595 16.279,10.705 -5.635,14.388 -14.336,7.671 -28.176,8.506 11.728,23.309 1.782,42.174 -3.71,15.048 23.806,-1.292 23.688,14.302 -2.45,11.223 -23.049,-0.797 -23.978,10.634 -9.223,16.607 -26.787,26.551 -38.909,41.107 -13.615,15.089 -36.646,42.732 -10.464,57.855 8.011,8.22 16.782,17.378 21.843,27.396 2.426,13.985 -9.543,39.912 -24.862,23.845 -17.468,-21.692 -23.709,17.01 -33.013,26.97 -13.991,18.166 -35.49,-3.301 -45.341,-15.933 -5.238,-7.852 -19.318,-5.461 -25.956,-1.394 -10.023,13.977 -26.941,30.124 -38.787,8.596 -21.058,-12.136 -28.423,32.007 -48.693,26.07 z"
           style="fill:#f8d313;fill-opacity:1;stroke:none" />
        <path
           inkscape:connector-curvature="0"
           id="path4167"
           d="m -797.282,458.0797 c 15.397,-15.233 30.254,-31.337 46.674,-45.128 16.514,-9.204 3.139,14.869 -5.141,18.763 -12.503,13.915 13.515,29.759 18.466,9.76 10.398,-9.95 25.887,-34.076 39.683,-27.674 1.353,10.155 -15.193,14.185 1.09,18.139 11.842,13.345 36.886,38.636 44.643,7.418 9.286,-14.644 13.923,-29.283 0.634,-42.791 14.985,-7.936 29.763,36.828 44.96,21.269 2.453,-24.35 -25.463,-35.485 -38.662,-51.873 -15.569,-2.276 -32.676,-3.003 -44.319,-16.627 -13.21,17.895 -36.721,16.961 -56.42,12.477 -18.894,-9.702 -29.56,-33.274 -54.223,-29.935 -22.295,-8.273 -49.6309,-15.227 -59.8986,-39.383 -15.4356,-2.623 -30.5328,14.937 -44.6705,22.474 -18.718,4.635 -19.0404,50.334 2.3433,28.159 6.427,-6.106 24.6481,-33.138 27.5136,-15.051 -15.3821,12.051 -27.5636,39.678 -50.3144,33.686 -18.27216,1.252 -13.20424,37.014 -4.4206,39.228 6.8931,-14.562 25.7504,-32.605 33.4798,-8.721 8.8143,14.129 12.4015,32.916 25.2508,44.835 22.8986,-4.866 7.712,-28.598 -1.2557,-39.083 22.0101,-12.395 26.1775,28.428 39.3733,38.724 9.714,-5.493 18.35,-37.631 32.888,-25.952 -8.119,16.016 -31.626,36.499 -8.512,54.036 3.197,4.95 7.739,-6.349 10.838,-6.75 z"
           style="fill:#f8d313;fill-opacity:1;stroke:none" />
        <path
           inkscape:connector-curvature="0"
           id="path4165"
           d="m -676.344,405.2097 c -12.367,-2.084 -30.127,-33.947 -8.04,-21.764 4.347,3.364 29.744,28.571 8.04,21.764 z"
           style="fill:#f8d313;fill-opacity:1;stroke:none" />
        <path
           inkscape:connector-curvature="0"
           id="path4163"
           d="m -781.554,392.0857 c -7.983,-10.561 6.118,-40.784 11.263,-16.993 3.386,6.702 -1.531,25.362 -11.263,16.993 z"
           style="fill:#f8d313;fill-opacity:1;stroke:none" />
        <path
           inkscape:connector-curvature="0"
           id="path4161"
           d="m -841.773,376.7647 c -2.31,-8.699 22.131,-37.872 27.299,-20.823 -4.581,7.425 -18.569,23.032 -27.299,20.823 z"
           style="fill:#f8d313;fill-opacity:1;stroke:none" />
        <path
           inkscape:connector-curvature="0"
           id="path4159"
           d="m -634.808,354.5707 c 2.26,-11.446 19.391,-26.348 15.41,-33.963 -19.212,-1.318 -43.666,4.795 -55.753,-14.924 -5.991,5.595 -11.207,17.285 -21.775,14.152 -10.593,-0.433 -21.656,0.856 -31.965,-0.617 -13.081,-6.381 -22.481,-17.8 -33.905,-26.37 -21.297,-0.564 -38.983,-12.037 -57.787,-20.189 -21.021,-6.176 -29.407,-35.34 -9.25,-48.031 9.031,-16.42 23.95,1.026 7.628,8.839 -23.155,19.36 11.705,30.902 26.611,38.646 19.588,9.013 44.043,6.789 57.288,27.325 11.94,12.738 30.094,7.289 45.537,8.397 19.027,-11.407 12.525,-35.392 -7.608,-41.296 -5.005,-9.722 -37.677,-28.599 -18.651,-34.92 9.124,3.371 12.885,17.45 23.986,14.716 16.238,0 32.476,0 48.714,0 5.186,-7.91 26.93,-24.374 19.93,-5.047 -12.634,17.343 -39.327,27.895 -42.68,48.915 4.345,22.91 32.068,16.276 49.031,17.616 19.572,3.066 33.967,-16.111 42.371,-30.365 -13.335,-0.704 -54.115,-2.221 -41.621,-22.539 12.564,3.894 29.33,11.273 41.906,5.218 5.979,-18.243 -11.535,-38.575 -22.154,-13.577 -20.911,3.627 -1.661,-20.346 3.072,-25.954 -10.387,-14.481 -19.262,-30.143 -32.568,-42.389 -24.263,-14.801 22.242,-33.048 0.692,-48.353 -15.74,-22.8471 19.684,-28.8402 30.535,-41.113198 3.49,-15.2841 -25.153,-52.0577 -32.941,-25.9459 -5.823,20.865 -25.491,30.9468 -42.07,14.947 -16.019,-5.0446 -30.227,-14.1142 -44.035,-23.2731 -14.442,1.1939 -26.188,13.8371 -40.984,2.3163 -23.173,-1.7233 -37.664,18.3312 -55.633,28.6832 -4.233,14.796298 -20.895,13.6337 -16.867,-2.6847 -2.279,-15.8771 -10.165,-30.2201 -9.53,-47.2396 -18.2036,-9.688541 -48.1549,-4.2552 -41.353,23.0426 0.9349,16.9913 6.9595,30.5188 23.1102,34.5544 15.3298,10.721098 -3.2556,23.281098 -9.5441,6.6661 -8.2127,6.260898 -5.2579,30.495898 -21.0866,37.635898 -11.8431,7.703 -26.3006,30.936 -7.5962,38.282 12.5659,-5.294 24.3116,-40.438 37.9995,-26.593 -5.4445,16.887 -31.2312,22.856 -30.977,42.697 -0.3557,24.494 18.6031,-2.033 28.9916,-2.387 3.8104,19.444 -23.9911,27.382 -38.047,32.803 -11.5313,14.369 20.859,14.655 23.0011,30.203 0.7553,25.241 -25.1826,-21.245 -37.9687,-3.234 -11.8049,10.694 -29.77532,28.245 -6.0384,38.12 3.2796,12.995 9.2118,23.085 20.2623,8.979 18.0032,-7.438 40.919,-32.972 52.422,-3.859 14.4203,16.675 37.0513,26.041 58.3223,28.94 24.737,0.137 33.728,29.743 57.375,31.521 18.121,5.334 30.444,-10.527 43.113,-15.601 7.498,6.102 14.745,15.348 25.768,12.515 9.897,-1.185 19.402,1.303 27.312,4.735 z"
           style="fill:#f8d313;fill-opacity:1;stroke:none" />
        <path
           inkscape:connector-curvature="0"
           id="path4157"
           d="m -785.386,258.8857 c -11.232,1.603 -29.17,-19.352 -9.874,-19.845 14.244,16.514 44.592,-2.601 54.724,16.957 -10.543,8.089 -31.599,2.378 -44.85,2.888 z"
           style="fill:#f8d313;fill-opacity:1;stroke:none" />
        <path
           inkscape:connector-curvature="0"
           id="path4155"
           d="m -761.093,230.8457 c -13.947,-9.06 -38.017,-26.17 -35.094,-42.51 17.752,13.182 36.221,26.742 55.268,36.267 1.375,10.767 -14.08,7.768 -20.174,6.243 z"
           style="fill:#f8d313;fill-opacity:1;stroke:none" />
        <path
           inkscape:connector-curvature="0"
           id="path4153"
           d="m -764.629,170.2437 c -22.205,-4.119 -20.036,-28.893 -18.458,-45.908 4.935,-22.558 39.53,-27.563998 50.633,-7.0953 7.491,16.9253 7.483,42.8043 -11.62,52.5103 -6.337,2.523 -13.959,1.42 -20.555,0.493 z"
           style="fill:#f8d313;fill-opacity:1;stroke:none" />
        <path
           inkscape:connector-curvature="0"
           id="path4151"
           d="m -755.344,154.3577 c -0.61,-10.056 3.471,-22.933 15.479,-19.022 9.568,-6.101 -8.171,-27.5431 -20.663,-21.9839 -12.904,2.0703 -16.516,19.7539 -14.816,31.2839 -2.094,7.56 3.98,12.281 8.046,17.7 7.42,-0.306 14.625,2.673 11.954,-7.978 z"
           style="fill:#f8d313;fill-opacity:1;stroke:none" />
        <path
           inkscape:connector-curvature="0"
           id="path4149"
           d="m -699.167,166.3717 c -16.668,-12 -14.522,-42.958 0.801,-55.7016 22.966,-17.876098 48.829,11.4246 41.867,35.3716 -0.293,20.719 -26.586,31.123 -42.668,20.33 z"
           style="fill:#f8d313;fill-opacity:1;stroke:none" />
        <path
           inkscape:connector-curvature="0"
           id="path4147"
           d="m -682.344,155.3577 c -0.374,-9.841 3.832,-21.748 15.355,-18.022 9.277,-6.208 -7.738,-28.9952 -20.223,-22.9999 -11.327,1.2313 -17.147,16.4699 -15.132,27.0419 -2.255,9.644 4.23,20.575 14.593,20.958 6.917,1.333 5.349,-1.449 5.407,-6.978 z"
           style="fill:#f8d313;fill-opacity:1;stroke:none" />
        <path
           inkscape:connector-curvature="0"
           id="path4145"
           d="m -787.985,107.8283 c 2.158,-20.213498 25.672,-29.377398 44.076,-30.149798 16.661,13.0497 -23.394,8.0272 -27.755,19.9997 -4.913,3.022798 -8.641,16.144298 -16.321,10.150098 z"
           style="fill:#f8d313;fill-opacity:1;stroke:none" />
        <path
           inkscape:connector-curvature="0"
           id="path4143"
           d="m -671.858,101.9555 c -7.103,-7.566798 -43.601,-8.567198 -29.929,-21.292998 11.185,4.69 44.158,7.321 35.209,23.540598 l -2.799,-0.1618 z"
           style="fill:#f8d313;fill-opacity:1;stroke:none" />
        <path
           inkscape:connector-curvature="0"
           id="path4141"
           d="m -636.63,93.716502 c -4.08,-11.0354 21.849,-32.1579 18.535,-10.4887 -3.889,4.4077 -12.374,11.8009 -18.535,10.4887 z"
           style="fill:#f8d313;fill-opacity:1;stroke:none" />
        <path
           inkscape:connector-curvature="0"
           id="path4139"
           d="m -852.7853,80.830902 c -20.7379,-0.6551 -3.8945,-41.3173 1.9823,-18.1077 -8.3672,6.6049 18.507,21.0523 -1.9823,18.1077 z"
           style="fill:#f8d313;fill-opacity:1;stroke:none" />
        <path
           inkscape:connector-curvature="0"
           id="path3234-2"
           d="m -922.4892,319.8957 c 14.747,-10.749 -16.2587,-22.997 -11.497,-1.691 2.2068,8.604 6.7899,8.423 11.497,1.691 z"
           style="fill:#f8d313;fill-opacity:1;stroke:none" />
      </g>
      <ellipse
         ry="26"
         rx="24.25"
         cy="138.56378"
         cx="-751.75"
         style="fill:#ffffff;fill-opacity:1;fill-rule:nonzero;stroke:none"
         id="path4190"
         transform="matrix(1,0,0,1.0817308,-4.25,-11.699924)" />
      <ellipse
         ry="26"
         rx="24.25"
         cy="138.56378"
         cx="-751.75"
         style="fill:#ffffff;fill-opacity:1;fill-rule:nonzero;stroke:none"
         id="path4190-8"
         transform="matrix(1,0,0,1.0817308,68.750002,-11.074928)" />
    </g>
    <path
       id="path3234"
       d="m 379.52265,936.94758 c -13.33,-7.695 -16.388,-23.361 -28.239,-31.439 -11.3374,-18.114 -20.7805,17.168 -34.8553,0.724 -21.0308,-9.216 -17.2123,-45.591 -38.0645,-50.272 -11.0872,3.631 -20.8137,36.835 -26.87014,11.767 -3.41794,-17.173 -15.69959,-45.165 6.12314,-54.64 17.0667,-13.255 -29.1376,-31.006 -5.09436,-46.593 18.98426,-12.431 -24.07204,-29.766 1.55334,-43.745 12.60052,-12.559 20.37742,-25.142 25.62042,-39.431 24.3445,-10.543 7.8943,-35.148 -4.216,-48.336 -9.0712,-22.741 13.2099,-36.268 26.0811,-50.642 14.2388,-17.5613 0.5508,-38.9592 -1.5691,-58.1694 -6.1914,-18.1744 2.501,-43.82059 24.6246,-43.35639 12.605,0.43546 35.7678,-0.68952 38.3348,14.66529 -0.566,13.5985 -2.214,29.0101 8.919,38.455 14.998,-9.7532 30.106,-23.8221 48.658,-28.3994 15.783,-5.3942 29.937,12.2428 43.29,-2.4827 20.92,-5.9801 29.245,20.0568 47.704,23.2473 11.953,4.352 29.702,16.6617 34.226,-1.2008 4.127,-18.6745 25.352,-36.09259 39.839,-14.2227 13.25,12.9188 28.615,38.8271 7.472,52.3156 -7.063,5.5194 -14.004,7.9188 -21.142,11.3455 -9.213,10.9447 19.818,28.1717 -1.016,40.9567 -10.891,17.215 19.111,30.61 24.013,47.565 8.531,20.361 26.069,-15.186 41.634,2.595 16.279,10.705 -5.635,14.388 -14.336,7.671 -28.176,8.506 11.728,23.309 1.782,42.174 -3.71,15.048 23.806,-1.292 23.688,14.302 -2.45,11.223 -23.049,-0.797 -23.978,10.634 -9.223,16.607 -26.787,26.551 -38.909,41.107 -13.615,15.089 -36.646,42.732 -10.464,57.855 8.011,8.22 16.782,17.378 21.843,27.396 2.426,13.985 -9.543,39.912 -24.862,23.845 -17.468,-21.692 -23.709,17.01 -33.013,26.97 -13.991,18.166 -35.49,-3.301 -45.341,-15.933 -5.238,-7.852 -19.318,-5.461 -25.956,-1.394 -10.023,13.977 -26.941,30.124 -38.787,8.596 -21.058,-12.136 -28.423,32.007 -48.693,26.07 z m 13.562,-17.101 c 15.397,-15.233 30.254,-31.337 46.674,-45.128 16.514,-9.204 3.139,14.869 -5.141,18.763 -12.503,13.915 13.515,29.759 18.466,9.76 10.398,-9.95 25.887,-34.076 39.683,-27.674 1.353,10.155 -15.193,14.185 1.09,18.139 11.842,13.345 36.886,38.636 44.643,7.418 9.286,-14.644 13.923,-29.283 0.634,-42.791 14.985,-7.936 29.763,36.828 44.96,21.269 2.453,-24.35 -25.463,-35.485 -38.662,-51.873 -15.569,-2.276 -32.676,-3.003 -44.319,-16.627 -13.21,17.895 -36.721,16.961 -56.42,12.477 -18.894,-9.702 -29.56,-33.274 -54.223,-29.935 -22.295,-8.273 -49.6309,-15.227 -59.8986,-39.383 -15.4356,-2.623 -30.5328,14.937 -44.6705,22.474 -18.718,4.635 -19.0404,50.334 2.3433,28.159 6.427,-6.106 24.6481,-33.138 27.5136,-15.051 -15.3821,12.051 -27.5636,39.678 -50.3144,33.686 -18.27216,1.252 -13.20424,37.014 -4.4206,39.228 6.8931,-14.562 25.7504,-32.605 33.4798,-8.721 8.8143,14.129 12.4015,32.916 25.2508,44.835 22.8986,-4.866 7.712,-28.598 -1.2557,-39.083 22.0101,-12.395 26.1775,28.428 39.3733,38.724 9.714,-5.493 18.35,-37.631 32.888,-25.952 -8.119,16.016 -31.626,36.499 -8.512,54.036 3.197,4.95 7.739,-6.349 10.838,-6.75 z m 120.938,-52.87 c -12.367,-2.084 -30.127,-33.947 -8.04,-21.764 4.347,3.364 29.744,28.571 8.04,21.764 z m -105.21,-13.124 c -7.983,-10.561 6.118,-40.784 11.263,-16.993 3.386,6.702 -1.531,25.362 -11.263,16.993 z m -60.219,-15.321 c -2.31,-8.699 22.131,-37.872 27.299,-20.823 -4.581,7.425 -18.569,23.032 -27.299,20.823 z m 206.965,-22.194 c 2.26,-11.446 19.391,-26.348 15.41,-33.963 -19.212,-1.318 -43.666,4.795 -55.753,-14.924 -5.991,5.595 -11.207,17.285 -21.775,14.152 -10.593,-0.433 -21.656,0.856 -31.965,-0.617 -13.081,-6.381 -22.481,-17.8 -33.905,-26.37 -21.297,-0.564 -38.983,-12.037 -57.787,-20.189 -21.021,-6.176 -29.407,-35.34 -9.25,-48.031 9.031,-16.42 23.95,1.026 7.628,8.839 -23.155,19.36 11.705,30.902 26.611,38.646 19.588,9.013 44.043,6.789 57.288,27.325 11.94,12.738 30.094,7.289 45.537,8.397 19.027,-11.407 12.525,-35.392 -7.608,-41.296 -5.005,-9.722 -37.677,-28.599 -18.651,-34.92 9.124,3.371 12.885,17.45 23.986,14.716 16.238,0 32.476,0 48.714,0 5.186,-7.91 26.93,-24.374 19.93,-5.047 -12.634,17.343 -39.327,27.895 -42.68,48.915 4.345,22.91 32.068,16.276 49.031,17.616 19.572,3.066 33.967,-16.111 42.371,-30.365 -13.335,-0.704 -54.115,-2.221 -41.621,-22.539 12.564,3.894 29.33,11.273 41.906,5.218 5.979,-18.243 -11.535,-38.575 -22.154,-13.577 -20.911,3.627 -1.661,-20.346 3.072,-25.954 -10.387,-14.481 -19.262,-30.143 -32.568,-42.389 -24.263,-14.801 22.242,-33.048 0.692,-48.353 -15.74,-22.8471 19.684,-28.8402 30.535,-41.1132 3.49,-15.2841 -25.153,-52.0577 -32.941,-25.9459 -5.823,20.865 -25.491,30.9468 -42.07,14.947 -16.019,-5.0446 -30.227,-14.1142 -44.035,-23.2731 -14.442,1.1939 -26.188,13.8371 -40.984,2.3163 -23.173,-1.7233 -37.664,18.3312 -55.633,28.6832 -4.233,14.7963 -20.895,13.6337 -16.867,-2.6847 -2.279,-15.8771 -10.165,-30.2201 -9.53,-47.2396 -18.2036,-9.68854 -48.1549,-4.2552 -41.353,23.0426 0.9349,16.9913 6.9595,30.5188 23.1102,34.5544 15.3298,10.7211 -3.2556,23.2811 -9.5441,6.6661 -8.2127,6.2609 -5.2579,30.4959 -21.0866,37.6359 -11.8431,7.703 -26.3006,30.936 -7.5962,38.282 12.5659,-5.294 24.3116,-40.438 37.9995,-26.593 -5.4445,16.887 -31.2312,22.856 -30.977,42.697 -0.3557,24.494 18.6031,-2.033 28.9916,-2.387 3.8104,19.444 -23.9911,27.382 -38.047,32.803 -11.5313,14.369 20.859,14.655 23.0011,30.203 0.7553,25.241 -25.1826,-21.245 -37.9687,-3.234 -11.8049,10.694 -29.77532,28.245 -6.0384,38.12 3.2796,12.995 9.2118,23.085 20.2623,8.979 18.0032,-7.438 40.919,-32.972 52.422,-3.859 14.4203,16.675 37.0513,26.041 58.3223,28.94 24.737,0.137 33.728,29.743 57.375,31.521 18.121,5.334 30.444,-10.527 43.113,-15.601 7.498,6.102 14.745,15.348 25.768,12.515 9.897,-1.185 19.402,1.303 27.312,4.735 z m -150.578,-95.685 c -11.232,1.603 -29.17,-19.352 -9.874,-19.845 14.244,16.514 44.592,-2.601 54.724,16.957 -10.543,8.089 -31.599,2.378 -44.85,2.888 z m 24.293,-28.04 c -13.947,-9.06 -38.017,-26.17 -35.094,-42.51 17.752,13.182 36.221,26.742 55.268,36.267 1.375,10.767 -14.08,7.768 -20.174,6.243 z m -3.536,-60.602 c -22.205,-4.119 -20.036,-28.893 -18.458,-45.908 4.935,-22.558 39.53,-27.564 50.633,-7.0953 7.491,16.9253 7.483,42.8043 -11.62,52.5103 -6.337,2.523 -13.959,1.42 -20.555,0.493 z m 9.285,-15.886 c -0.61,-10.056 3.471,-22.933 15.479,-19.022 9.568,-6.101 -8.171,-27.5431 -20.663,-21.9839 -12.904,2.0703 -16.516,19.7539 -14.816,31.2839 -2.094,7.56 3.98,12.281 8.046,17.7 7.42,-0.306 14.625,2.673 11.954,-7.978 z m 56.177,12.014 c -16.668,-12 -14.522,-42.958 0.801,-55.7016 22.966,-17.8761 48.829,11.4246 41.867,35.3716 -0.293,20.719 -26.586,31.123 -42.668,20.33 z m 16.823,-11.014 c -0.374,-9.841 3.832,-21.748 15.355,-18.022 9.277,-6.208 -7.738,-28.9952 -20.223,-22.9999 -11.327,1.2313 -17.147,16.4699 -15.132,27.0419 -2.255,9.644 4.23,20.575 14.593,20.958 6.917,1.333 5.349,-1.449 5.407,-6.978 z m -105.641,-47.5294 c 2.158,-20.2135 25.672,-29.3774 44.076,-30.1498 16.661,13.0497 -23.394,8.0272 -27.755,19.9997 -4.913,3.0228 -8.641,16.1443 -16.321,10.1501 z m 116.127,-5.8728 c -7.103,-7.5668 -43.601,-8.5672 -29.929,-21.293 11.185,4.69 44.158,7.321 35.209,23.5406 l -2.799,-0.1618 z m 35.228,-8.239 c -4.08,-11.0354 21.849,-32.1579 18.535,-10.4887 -3.889,4.4077 -12.374,11.8009 -18.535,10.4887 z m -216.1553,-12.8856 c -20.7379,-0.6551 -3.8945,-41.3173 1.9823,-18.1077 -8.3672,6.6049 18.507,21.0523 -1.9823,18.1077 z m -69.7039,239.0648 c 14.747,-10.749 -16.2587,-22.997 -11.497,-1.691 2.2068,8.604 6.7899,8.423 11.497,1.691 z"
       inkscape:connector-curvature="0"
       style="fill:#000000" />
  </g>
</svg>
