<?xml version="1.0" encoding="UTF-8" standalone="no"?>
<!-- Created with Inkscape (http://www.inkscape.org/) -->

<svg
   version="1.1"
   width="120"
   height="120"
   id="svg3400"
   sodipodi:docname="Wikipedia DE.svg"
   inkscape:version="1.2.2 (b0a8486541, 2022-12-01)"
   xmlns:inkscape="http://www.inkscape.org/namespaces/inkscape"
   xmlns:sodipodi="http://sodipodi.sourceforge.net/DTD/sodipodi-0.dtd"
   xmlns="http://www.w3.org/2000/svg"
   xmlns:svg="http://www.w3.org/2000/svg">
  <sodipodi:namedview
     id="namedview15"
     pagecolor="#ffffff"
     bordercolor="#cccccc"
     borderopacity="1"
     inkscape:pageshadow="0"
     inkscape:pageopacity="0"
     inkscape:pagecheckerboard="true"
     showgrid="false"
     width="135px"
     inkscape:zoom="4.928"
     inkscape:cx="39.772727"
     inkscape:cy="70.109578"
     inkscape:window-width="1920"
     inkscape:window-height="1021"
     inkscape:window-x="0"
     inkscape:window-y="0"
     inkscape:window-maximized="1"
     inkscape:current-layer="g917"
     fit-margin-top="5"
     fit-margin-left="5"
     fit-margin-right="5"
     fit-margin-bottom="5"
     inkscape:showpageshadow="2"
     inkscape:deskcolor="#d1d1d1" />
  <defs
     id="defs3402" />
  <g
     transform="translate(-364.99536,-812.28111)"
     id="layer1">
    <rect
       style="display:inline;fill:#ffffff;fill-opacity:1;fill-rule:evenodd;stroke:none;stroke-width:0.894736px;stroke-linecap:butt;stroke-linejoin:miter;stroke-opacity:1"
       id="rect1342"
       width="119"
       height="119"
       x="365.49536"
       y="812.78113"
       rx="17.894737"
       ry="17.894737" />
    <g
       id="g917"
       transform="matrix(0.86683541,0,0,0.86683541,56.594333,103.38352)">
      <g
         id="g1318"
         transform="translate(-0.108,45.129997)">
        <path
           d="m 412.98736,806.72288 c 0,0 -1.468,-2.984 -1.968,-3.976 -3.336,-6.612 -3.264,-6.964 -6.636,-7.408 -0.944,-0.124 -1.432,-0.244 -1.432,-0.712 v -2.092 l 0.284,-0.204 c 6.092,-0.008 19.648,-0.008 19.648,-0.008 l 0.52,0.172 v 2.084 c 0,0.476 -0.34,0.72 -1.032,0.72 l -1.424,0.204 c -3.6,0.28 -3.012,1.752 -0.62,6.516 l 22.708,46.46 0.776,0.212 20.16,-47.844 c 0.7,-1.928 0.592,-3.296 -0.308,-4.1 -0.904,-0.784 -1.54,-1.248 -3.876,-1.344 l -1.892,-0.096 c -0.232,0 -0.452,-0.084 -0.664,-0.24 -0.208,-0.148 -0.316,-0.344 -0.316,-0.58 v -1.992 l 0.288,-0.204 c 5.68,0 22.776,0 22.776,0 l 0.232,0.204 v 1.992 c 0,0.54 -0.308,0.812 -0.916,0.812 -2.984,0.132 -5.196,0.78 -6.628,1.936 -1.436,1.164 -2.556,2.768 -3.36,4.852 0,0 -18.54,42.436 -24.884,56.54 -2.428,4.624 -4.816,4.2 -6.916,-0.132 -4.436,-9.136 -16.928,-36.852 -16.928,-36.852 z"
           id="path3898" />
        <path
           d="m 449.37136,792.29888 c 0,0 -12.812,-0.04 -18.516,0 l -0.284,0.204 v 1.984 c 0,0.244 0.104,0.436 0.312,0.584 0.212,0.156 0.428,0.236 0.66,0.236 l 0.916,0.1 c 2.332,0.096 3.404,0.708 3.724,1.092 0.556,0.68 0.832,1.416 -0.516,4.356 l -23.92,47.708 -0.628,-0.164 c 0,0 -17.132,-36.124 -22.092,-48.208 -0.516,-1.252 -0.748,-2.18 -0.748,-2.752 0,-1.228 1.108,-1.892 3.324,-1.984 l 2.584,-0.108 c 0.684,0 1.032,-0.264 1.032,-0.812 v -1.984 l -0.232,-0.204 c 0,0 -20.52,-0.024 -24.76,0 l -0.232,0.204 v 2.084 c 0,0.376 0.476,0.608 1.432,0.712 2.604,0.14 4.316,0.556 5.14,1.248 0.82,0.7 1.688,2.468 2.84,5.224 6.228,14.96 19.46,41.656 25.904,56.86 1.856,4.152 4.188,4.796 7.02,-0.128 4.904,-9.096 18.2,-36.872 18.2,-36.872 l 10.472,-19.584 c 1.22,-2.068 2.396,-3.912 2.992,-4.772 1.092,-1.572 1.704,-1.868 4.688,-2.008 0.608,0 0.916,-0.272 0.916,-0.82 v -1.984 z"
           id="path3900" />
      </g>
      <g
         id="g1314"
         transform="matrix(0.42891771,0,0,0.42891771,154.3803,567.14816)"
         style="display:inline">
        <path
           d="m 647.80736,861.19888 c -3.12,0 -10.292,0.212 -10.292,0.212 l -0.108,-0.212 v -2.288 c 0,-0.204 0.108,-0.516 0.624,-0.516 l 2.396,-0.212 c 3.228,-0.312 4.164,-2.392 4.164,-4.468 v -34.32 c 0,-2.4 -1.252,-2.812 -4.164,-3.016 l -2.396,-0.216 c -0.624,-0.096 -0.624,-0.308 -0.624,-0.416 v -2.396 l 0.108,-0.208 c 0,0 8.108,0.208 11.228,0.208 h 15.288 c 3.12,0 10.508,-0.208 10.508,-0.208 l 0.212,0.208 c 0.1,4.472 0.828,8.536 1.56,12.484 l -2.596,0.416 c -1.14,-3.852 -3.116,-9.36 -9.772,-9.36 h -8.32 c -1.976,0 -3.016,0.728 -3.016,2.492 v 15.084 h 7.796 c 2.916,0 3.64,-1.248 4.06,-3.328 l 0.62,-2.184 c 0,-0.312 0.212,-0.524 0.624,-0.524 h 1.764 c 0.212,0 0.212,0.108 0.212,0.312 -0.212,2.288 -0.624,5.204 -0.624,7.7 0,2.596 0.416,4.784 0.624,7.176 l -0.212,0.212 h -1.764 c -0.516,0 -0.732,-0.212 -0.732,-0.524 l -0.52,-2.284 c -0.416,-2.084 -1.352,-3.228 -4.064,-3.228 h -7.792 v 15.916 c 0,1.972 1.136,3.948 3.016,3.948 h 9.88 c 5.304,0 8.22,-3.328 9.464,-8.74 l 2.596,0.312 -2.084,11.956 -0.208,0.208 c 0,0 -6.136,-0.208 -9.256,-0.208 z"
           id="path3912" />
        <path
           d="m 584.91936,858.39488 2.392,-0.212 c 3.124,-0.312 4.164,-1.248 4.164,-4.468 v -34.32 c 0,-2.712 -0.736,-2.712 -4.164,-3.016 l -2.28,-0.216 c -0.416,0 -0.736,-0.208 -0.736,-0.52 v -2.288 l 0.1,-0.208 c 0,0 9.156,0.208 11.032,0.208 1.968,0 11.024,-0.208 13.728,-0.208 17.368,0 25.9,10.816 25.9,24.648 0,18.204 -12.9,23.604 -24.44,23.604 -8.32,0 -11.956,-0.208 -15.18,-0.208 -3.124,0 -11.028,0.208 -11.028,0.208 l -0.104,-0.208 v -2.184 c -0.008,-0.3 0.204,-0.612 0.616,-0.612 z m 23.196,0 c 11.436,0 17.892,-4.26 17.892,-18.828 0,-10.812 -2.396,-23.404 -19.868,-23.404 -4.056,0 -6.656,0.624 -6.656,3.232 v 34.32 c 0,2.904 0.724,4.68 8.632,4.68 z"
           id="path3914" />
      </g>
    </g>
  </g>
</svg>
